<svg width="32" height="35" viewBox="0 0 42 45" fill="none" xmlns="http://www.w3.org/2000/svg">
<g filter="url(#filter0_f_807_265)">
<path d="M39.5 19.5555C39.5 28.5317 28.5 38.0555 12.4349 42.0555C2.55542 42.0555 2 21.6864 2 12.7102C2 3.73405 8.54647 3.08555 19.9377 2.05551C29.5 1.19087 39.5 10.5793 39.5 19.5555Z" fill="url(#paint0_linear_807_265)"/>
<path d="M39.5 19.5555C39.5 28.5317 28.5 38.0555 12.4349 42.0555C2.55542 42.0555 2 21.6864 2 12.7102C2 3.73405 8.54647 3.08555 19.9377 2.05551C29.5 1.19087 39.5 10.5793 39.5 19.5555Z" fill="url(#paint1_linear_807_265)"/>
</g>
<defs>
<filter id="filter0_f_807_265" x="0.0124123" y="0.0124123" width="41.4752" height="44.0307" filterUnits="userSpaceOnUse" color-interpolation-filters="sRGB">
<feFlood flood-opacity="0" result="BackgroundImageFix"/>
<feBlend mode="normal" in="SourceGraphic" in2="BackgroundImageFix" result="shape"/>
<feGaussianBlur stdDeviation="0.993794" result="effect1_foregroundBlur_807_265"/>
</filter>
<linearGradient id="paint0_linear_807_265" x1="10.5677" y1="8.44898" x2="32.5602" y2="40.7417" gradientUnits="userSpaceOnUse">
<stop stop-color="#FF2E00"/>
<stop offset="1" stop-color="#1400FF" stop-opacity="0"/>
</linearGradient>
<linearGradient id="paint1_linear_807_265" x1="24.7579" y1="6.20902" x2="24.7579" y2="38.7146" gradientUnits="userSpaceOnUse">
<stop stop-color="#00FFA3" stop-opacity="0.29"/>
<stop offset="1" stop-color="#3300FF" stop-opacity="0"/>
</linearGradient>
</defs>
</svg>
