<svg viewBox="0 0 351 349" fill="none" xmlns="http://www.w3.org/2000/svg">
<g filter="url(#filter0_f_573_1460)">
<path d="M209.043 196.209C209.043 240.326 121.135 278.31 77.0176 278.31C32.9002 278.31 30.4199 178.196 30.4199 134.079C30.4199 89.9616 66.405 81.7117 110.522 81.7117C154.64 81.7117 209.043 152.091 209.043 196.209Z" fill="url(#paint0_linear_573_1460)"/>
<path d="M209.043 196.209C209.043 240.326 121.135 278.31 77.0176 278.31C32.9002 278.31 30.4199 178.196 30.4199 134.079C30.4199 89.9616 66.405 81.7117 110.522 81.7117C154.64 81.7117 209.043 152.091 209.043 196.209Z" fill="url(#paint1_linear_573_1460)"/>
</g>
<g filter="url(#filter1_f_573_1460)">
<path d="M209.043 196.209C209.043 240.327 121.135 278.31 77.0176 278.31C32.9002 278.31 30.4199 178.197 30.4199 134.08C30.4199 89.9621 66.405 81.7122 110.522 81.7122C154.64 81.7122 209.043 152.092 209.043 196.209Z" fill="url(#paint2_linear_573_1460)"/>
<path d="M209.043 196.209C209.043 240.327 121.135 278.31 77.0176 278.31C32.9002 278.31 30.4199 178.197 30.4199 134.08C30.4199 89.9621 66.405 81.7122 110.522 81.7122C154.64 81.7122 209.043 152.092 209.043 196.209Z" fill="url(#paint3_linear_573_1460)"/>
</g>
<g filter="url(#filter2_f_573_1460)">
<path d="M320.214 171.357C320.214 210.572 264.902 270.765 225.687 270.765C186.471 270.765 110.746 204.359 110.746 165.144C110.746 125.928 140.761 39.5522 179.977 39.5522C219.192 39.5522 320.214 132.141 320.214 171.357Z" fill="url(#paint4_linear_573_1460)"/>
</g>
<g filter="url(#filter3_f_573_1460)">
<path d="M320.214 171.357C320.214 210.572 264.902 270.765 225.687 270.765C186.471 270.765 110.746 204.359 110.746 165.144C110.746 125.928 140.761 39.5522 179.977 39.5522C219.192 39.5522 320.214 132.141 320.214 171.357Z" fill="url(#paint5_linear_573_1460)"/>
</g>
<g style="mix-blend-mode:overlay">
<path d="M108.206 174.416C108.206 190.433 94.5503 203.416 77.7056 203.416C60.861 203.416 61 193.98 61 177.964C61 161.947 60.861 145.416 77.7056 145.416C94.5503 145.416 108.206 158.4 108.206 174.416Z" fill="#D9D9D9"/>
<path d="M118.857 145.416L134.861 146.146L138.857 203.416L118.857 199.578V145.416Z" fill="#D9D9D9"/>
<path d="M197.144 164.274C197.144 185.892 186.48 203.416 173.326 203.416C160.171 203.416 149.507 185.892 149.507 164.274C149.507 112.158 160.171 184.597 173.326 184.597C186.48 184.597 199.901 118.729 197.144 164.274Z" fill="#D9D9D9"/>
<path d="M237.658 142.416L245.066 163.28L267.158 162.931L260.857 171.445L248.926 175.61L267.158 206.416L240.554 189.949L211.228 200.573L226.39 175.61L217.274 169.27L208.158 162.931L229.275 163.28L237.658 142.416Z" fill="#D9D9D9"/>
</g>
<defs>
<filter id="filter0_f_573_1460" x="0.00281906" y="51.2946" width="239.458" height="257.432" filterUnits="userSpaceOnUse" color-interpolation-filters="sRGB">
<feFlood flood-opacity="0" result="BackgroundImageFix"/>
<feBlend mode="normal" in="SourceGraphic" in2="BackgroundImageFix" result="shape"/>
<feGaussianBlur stdDeviation="15.2086" result="effect1_foregroundBlur_573_1460"/>
</filter>
<filter id="filter1_f_573_1460" x="0.00281906" y="51.2951" width="239.458" height="257.432" filterUnits="userSpaceOnUse" color-interpolation-filters="sRGB">
<feFlood flood-opacity="0" result="BackgroundImageFix"/>
<feBlend mode="normal" in="SourceGraphic" in2="BackgroundImageFix" result="shape"/>
<feGaussianBlur stdDeviation="15.2086" result="effect1_foregroundBlur_573_1460"/>
</filter>
<filter id="filter2_f_573_1460" x="80.329" y="9.13514" width="270.302" height="292.047" filterUnits="userSpaceOnUse" color-interpolation-filters="sRGB">
<feFlood flood-opacity="0" result="BackgroundImageFix"/>
<feBlend mode="normal" in="SourceGraphic" in2="BackgroundImageFix" result="shape"/>
<feGaussianBlur stdDeviation="15.2086" result="effect1_foregroundBlur_573_1460"/>
</filter>
<filter id="filter3_f_573_1460" x="80.329" y="9.13514" width="270.302" height="292.047" filterUnits="userSpaceOnUse" color-interpolation-filters="sRGB">
<feFlood flood-opacity="0" result="BackgroundImageFix"/>
<feBlend mode="normal" in="SourceGraphic" in2="BackgroundImageFix" result="shape"/>
<feGaussianBlur stdDeviation="15.2086" result="effect1_foregroundBlur_573_1460"/>
</filter>
<linearGradient id="paint0_linear_573_1460" x1="68.6795" y1="113.135" x2="180.181" y2="261.889" gradientUnits="userSpaceOnUse">
<stop stop-color="#FF2E00"/>
<stop offset="1" stop-color="#1400FF" stop-opacity="0"/>
</linearGradient>
<linearGradient id="paint1_linear_573_1460" x1="132.047" y1="102.126" x2="132.047" y2="261.889" gradientUnits="userSpaceOnUse">
<stop stop-color="#00FFA3" stop-opacity="0.29"/>
<stop offset="1" stop-color="#3300FF" stop-opacity="0"/>
</linearGradient>
<linearGradient id="paint2_linear_573_1460" x1="68.6795" y1="113.136" x2="180.181" y2="261.89" gradientUnits="userSpaceOnUse">
<stop stop-color="#FF2E00"/>
<stop offset="1" stop-color="#1400FF" stop-opacity="0"/>
</linearGradient>
<linearGradient id="paint3_linear_573_1460" x1="132.047" y1="102.126" x2="132.047" y2="261.89" gradientUnits="userSpaceOnUse">
<stop stop-color="#00FFA3" stop-opacity="0.29"/>
<stop offset="1" stop-color="#3300FF" stop-opacity="0"/>
</linearGradient>
<linearGradient id="paint4_linear_573_1460" x1="181.752" y1="94.138" x2="181.752" y2="236.15" gradientUnits="userSpaceOnUse">
<stop stop-color="#00FFA3" stop-opacity="0.29"/>
<stop offset="1" stop-color="#3300FF" stop-opacity="0"/>
</linearGradient>
<linearGradient id="paint5_linear_573_1460" x1="181.752" y1="94.138" x2="181.752" y2="236.15" gradientUnits="userSpaceOnUse">
<stop stop-color="#00FFA3" stop-opacity="0.29"/>
<stop offset="1" stop-color="#3300FF" stop-opacity="0.25"/>
</linearGradient>
</defs>
</svg>
