<svg width="37" height="37" viewBox="0 0 37 37" fill="none" xmlns="http://www.w3.org/2000/svg">
<path fill-rule="evenodd" clip-rule="evenodd" d="M12.1053 23.9447C12.1053 23.3234 12.609 22.8197 13.2303 22.8197H24.0603C24.6817 22.8197 25.1853 23.3234 25.1853 23.9447C25.1853 24.566 24.6817 25.0697 24.0603 25.0697H13.2303C12.609 25.0697 12.1053 24.566 12.1053 23.9447Z" fill="current"/>
<path fill-rule="evenodd" clip-rule="evenodd" d="M12.1053 18.3049C12.1053 17.6836 12.609 17.1799 13.2303 17.1799H24.0603C24.6817 17.1799 25.1853 17.6836 25.1853 18.3049C25.1853 18.9263 24.6817 19.4299 24.0603 19.4299H13.2303C12.609 19.4299 12.1053 18.9263 12.1053 18.3049Z" fill="current"/>
<path fill-rule="evenodd" clip-rule="evenodd" d="M12.1056 12.6659C12.1056 12.0446 12.6093 11.5409 13.2306 11.5409H17.3631C17.9844 11.5409 18.4881 12.0446 18.4881 12.6659C18.4881 13.2872 17.9844 13.7909 17.3631 13.7909H13.2306C12.6093 13.7909 12.1056 13.2872 12.1056 12.6659Z" fill="current"/>
<path fill-rule="evenodd" clip-rule="evenodd" d="M8.00179 6.80473C10.2997 4.27154 13.8643 3.40015 18.6681 3.40015C23.4726 3.40015 27.0373 4.27151 29.335 6.80477C31.6027 9.30488 32.3796 13.1527 32.3796 18.4001C32.3796 23.6476 31.6027 27.4954 29.335 29.9955C27.0373 32.5288 23.4726 33.4001 18.6681 33.4001C13.8643 33.4001 10.2997 32.5288 8.00179 29.9956C5.73392 27.4955 4.9566 23.6477 4.9566 18.4001C4.9566 13.1526 5.73392 9.30482 8.00179 6.80473ZM9.66829 8.31644C8.00279 10.1525 7.2066 13.2422 7.2066 18.4001C7.2066 23.5581 8.00279 26.6478 9.66829 28.4839C11.3038 30.2868 14.0324 31.1501 18.6681 31.1501C23.3046 31.1501 26.0332 30.2868 27.6684 28.4839C29.3338 26.6479 30.1296 23.5582 30.1296 18.4001C30.1296 13.2421 29.3338 10.1524 27.6684 8.3164C26.0332 6.51353 23.3046 5.65015 18.6681 5.65015C14.0324 5.65015 11.3038 6.51351 9.66829 8.31644Z" fill="current"/>
</svg>
