<svg width="24" height="26" viewBox="0 0 24 26" fill="none" xmlns="http://www.w3.org/2000/svg">
<path fill-rule="evenodd" clip-rule="evenodd" d="M7.93774 12.9997C7.93774 15.2397 9.76024 17.0622 12.0002 17.0622C14.2402 17.0622 16.0627 15.2397 16.0627 12.9997C16.0627 10.7597 14.2402 8.93719 12.0002 8.93719C9.76024 8.93719 7.93774 10.7597 7.93774 12.9997ZM9.81274 12.9997C9.81274 11.7934 10.794 10.8122 12.0002 10.8122C13.2065 10.8122 14.1877 11.7934 14.1877 12.9997C14.1877 14.2059 13.2065 15.1872 12.0002 15.1872C10.794 15.1872 9.81274 14.2059 9.81274 12.9997Z" fill="white"/>
<path fill-rule="evenodd" clip-rule="evenodd" d="M7.96838 21.76C7.96838 23.995 9.77713 25.8125 11.9996 25.8125C14.2221 25.8125 16.0309 23.995 16.0309 21.76C16.0309 21.2312 16.3809 20.9725 16.5321 20.885C16.6809 20.8013 17.0696 20.6325 17.5146 20.8888C18.4459 21.4313 19.5309 21.5737 20.5709 21.2962C21.6134 21.0162 22.4846 20.3438 23.0234 19.4037C24.1321 17.4712 23.4696 14.99 21.5484 13.8725C21.0996 13.61 21.0509 13.175 21.0509 13C21.0509 12.825 21.0996 12.39 21.5496 12.1288C23.4696 11.0125 24.1309 8.53125 23.0234 6.59625C22.4834 5.655 21.6121 4.98375 20.5696 4.70375C19.5296 4.42875 18.4459 4.5725 17.5159 5.1125C17.0709 5.36875 16.6784 5.19875 16.5321 5.11375C16.3809 5.0275 16.0309 4.76875 16.0309 4.24C16.0309 2.005 14.2221 0.1875 11.9996 0.1875C9.77713 0.1875 7.96838 2.005 7.96838 4.24C7.96838 4.76875 7.61838 5.0275 7.46713 5.11375C7.31963 5.2025 6.92838 5.37 6.48588 5.1125C5.55463 4.5725 4.47088 4.42875 3.42963 4.70375C2.38713 4.98375 1.51588 5.655 0.975876 6.59625C-0.131624 8.53125 0.529626 11.0125 2.44963 12.1288C2.89963 12.39 2.94713 12.825 2.94713 13C2.94713 13.1737 2.89963 13.61 2.44963 13.8712C0.529626 14.99 -0.131624 17.4712 0.975876 19.4037C1.51463 20.3438 2.38588 21.015 3.42838 21.2962C4.46713 21.5737 5.55338 21.43 6.48713 20.8875C6.92838 20.6312 7.31963 20.8013 7.46713 20.885C7.61713 20.9725 7.96838 21.2312 7.96838 21.76ZM8.40088 19.2612C7.95588 19.005 7.46713 18.8763 6.97838 18.8763C6.48463 18.8763 5.99213 19.0063 5.54338 19.2675C5.04588 19.555 4.46713 19.6325 3.91463 19.4837C3.35838 19.335 2.89088 18.975 2.60338 18.4713C2.00463 17.43 2.35963 16.0925 3.39338 15.4925C4.28838 14.9713 4.82213 14.0388 4.82213 13C4.82213 11.9612 4.28838 11.0288 3.39213 10.5075C2.36088 9.90625 2.00588 8.57125 2.60213 7.52875C2.89088 7.025 3.35838 6.66375 3.91463 6.515C4.46963 6.37 5.04713 6.44625 5.54463 6.73375C6.43838 7.25375 7.50713 7.255 8.40213 6.74C9.30463 6.22 9.84338 5.28625 9.84338 4.24C9.84338 3.03875 10.8109 2.0625 11.9996 2.0625C13.1884 2.0625 14.1559 3.03875 14.1559 4.24C14.1559 5.285 14.6934 6.21875 15.5959 6.73875C16.4921 7.255 17.5609 7.25125 18.4571 6.73375C18.9534 6.44625 19.5296 6.3675 20.0846 6.515C20.6421 6.66375 21.1084 7.025 21.3971 7.52875C21.9934 8.57125 21.6396 9.9075 20.6059 10.5075C19.7109 11.0288 19.1771 11.9612 19.1771 13C19.1771 14.0388 19.7109 14.9713 20.6059 15.4925C21.6396 16.0925 21.9946 17.43 21.3971 18.4713C21.1084 18.975 20.6421 19.335 20.0846 19.4837C19.5309 19.6325 18.9534 19.555 18.4571 19.2675C17.5634 18.7475 16.4934 18.7463 15.5971 19.2612C14.6946 19.78 14.1559 20.715 14.1559 21.76C14.1559 22.9613 13.1884 23.9375 11.9996 23.9375C10.8109 23.9375 9.84338 22.9613 9.84338 21.76C9.84338 20.7137 9.30463 19.78 8.40088 19.2612Z" fill="white"/>
</svg>
