<svg width="24" height="24" viewBox="0 0 24 24" fill="none" xmlns="http://www.w3.org/2000/svg">
<path fill-rule="evenodd" clip-rule="evenodd" d="M23.1424 0.92026C24.2582 2.0283 24.2582 3.82477 23.1424 4.93281L4.88721 23.0613C3.77143 24.1693 1.96239 24.1693 0.846603 23.0613C-0.26918 21.9532 -0.26918 20.1568 0.846603 19.0487L19.1018 0.92026C20.2176 -0.187775 22.0267 -0.187775 23.1424 0.92026Z" fill="white" fill-opacity="0.86"/>
<path fill-rule="evenodd" clip-rule="evenodd" d="M0.836838 0.9144C1.95262 -0.193635 3.76166 -0.193635 4.87745 0.9144L23.1632 19.0731C24.2789 20.1812 24.2789 21.9776 23.1632 23.0857C22.0474 24.1937 20.2383 24.1937 19.1226 23.0857L0.836838 4.92695C-0.278946 3.81892 -0.278946 2.02244 0.836838 0.9144Z" fill="white" fill-opacity="0.86"/>
</svg>
