<svg width="32" height="33" viewBox="0 0 32 33" fill="none" xmlns="http://www.w3.org/2000/svg">
<path d="M17.5 16.5C17.5 16.7967 17.412 17.0867 17.2472 17.3334C17.0824 17.58 16.8481 17.7723 16.574 17.8858C16.2999 17.9994 15.9983 18.0291 15.7074 17.9712C15.4164 17.9133 15.1491 17.7704 14.9393 17.5607C14.7296 17.3509 14.5867 17.0836 14.5288 16.7926C14.4709 16.5017 14.5006 16.2001 14.6142 15.926C14.7277 15.6519 14.92 15.4176 15.1666 15.2528C15.4133 15.088 15.7033 15 16 15C16.3978 15 16.7794 15.158 17.0607 15.4393C17.342 15.7206 17.5 16.1022 17.5 16.5ZM16 9.5C16.2967 9.5 16.5867 9.41203 16.8334 9.24721C17.08 9.08238 17.2723 8.84811 17.3858 8.57403C17.4994 8.29994 17.5291 7.99834 17.4712 7.70737C17.4133 7.41639 17.2704 7.14912 17.0607 6.93934C16.8509 6.72956 16.5836 6.5867 16.2926 6.52882C16.0017 6.47094 15.7001 6.50065 15.426 6.61418C15.1519 6.72771 14.9176 6.91997 14.7528 7.16665C14.588 7.41332 14.5 7.70333 14.5 8C14.5 8.39783 14.658 8.77936 14.9393 9.06066C15.2206 9.34197 15.6022 9.5 16 9.5ZM16 23.5C15.7033 23.5 15.4133 23.588 15.1666 23.7528C14.92 23.9176 14.7277 24.1519 14.6142 24.426C14.5006 24.7001 14.4709 25.0017 14.5288 25.2926C14.5867 25.5836 14.7296 25.8509 14.9393 26.0607C15.1491 26.2704 15.4164 26.4133 15.7074 26.4712C15.9983 26.5291 16.2999 26.4993 16.574 26.3858C16.8481 26.2723 17.0824 26.08 17.2472 25.8334C17.412 25.5867 17.5 25.2967 17.5 25C17.5 24.6022 17.342 24.2206 17.0607 23.9393C16.7794 23.658 16.3978 23.5 16 23.5Z" fill="white"/>
</svg>
