<svg width="36" height="37" viewBox="0 0 36 37" fill="none" xmlns="http://www.w3.org/2000/svg">
<path fill-rule="evenodd" clip-rule="evenodd" d="M12.493 25.0032C12.493 24.3819 12.9967 23.8782 13.618 23.8782H22.3405C22.9619 23.8782 23.4655 24.3819 23.4655 25.0032C23.4655 25.6245 22.9619 26.1282 22.3405 26.1282H13.618C12.9967 26.1282 12.493 25.6245 12.493 25.0032Z" fill="current"/>
<path fill-rule="evenodd" clip-rule="evenodd" d="M10.2148 9.76653C9.59594 10.3397 9.04032 10.8324 8.54641 11.2677C8.47669 11.3292 8.40843 11.3893 8.34155 11.4482C7.92318 11.8166 7.55885 12.1374 7.23159 12.4395C6.47362 13.1392 5.99483 13.6675 5.65625 14.2583C4.9775 15.4427 4.72498 17.1035 4.72498 21.3695C4.72498 24.4536 4.90957 26.6677 5.32671 28.273C5.73621 29.8488 6.34665 30.7519 7.15531 31.3323C7.99986 31.9385 9.20554 32.2996 11.0211 32.4868C12.835 32.6737 15.0975 32.675 17.979 32.675C20.8605 32.675 23.123 32.6737 24.9368 32.4868C26.7524 32.2996 27.9581 31.9385 28.8026 31.3323C29.6113 30.7519 30.2218 29.8488 30.6312 28.273C31.0484 26.6677 31.233 24.4536 31.233 21.3695C31.233 17.1034 30.9808 15.4425 30.3024 14.2581C29.9639 13.6673 29.4853 13.1391 28.7276 12.4394C28.4001 12.1371 28.0354 11.8159 27.6166 11.4471C27.5501 11.3885 27.4822 11.3288 27.4129 11.2677C26.9191 10.8324 26.3635 10.3397 25.7446 9.76648C25.3783 9.47066 24.9988 9.15059 24.6055 8.81887C23.7488 8.09625 22.8266 7.31835 21.8316 6.61547C20.3542 5.57181 19.0162 4.92505 17.937 4.92505C16.8613 4.92505 15.5415 5.57187 14.0837 6.6171C13.1322 7.29922 12.2619 8.04054 11.4441 8.7371C11.0216 9.09697 10.6131 9.44489 10.2148 9.76653ZM12.7727 4.7885C14.2732 3.71273 16.0982 2.67505 17.937 2.67505C19.7707 2.67505 21.6105 3.70454 23.1298 4.77776C24.2037 5.53644 25.2662 6.43178 26.1555 7.18128C26.5349 7.50099 26.8828 7.79416 27.1866 8.03886C27.207 8.05527 27.2268 8.07238 27.246 8.09017C27.855 8.65498 28.4031 9.14111 28.9008 9.57981C28.9683 9.63931 29.035 9.69813 29.1011 9.75629C29.5179 10.1233 29.9052 10.4644 30.2538 10.7863C31.0628 11.5331 31.7436 12.2474 32.2547 13.1397C33.2754 14.9216 33.483 17.1892 33.483 21.3695C33.483 24.5007 33.3003 26.9481 32.8089 28.8389C32.3099 30.7591 31.4707 32.1868 30.1147 33.1602C28.7945 34.1078 27.1205 34.5236 25.1675 34.7249C23.2255 34.9251 20.8491 34.9251 18.0347 34.925H17.9232C15.1088 34.9251 12.7324 34.9251 10.7904 34.7249C8.83745 34.5236 7.16341 34.1078 5.84327 33.1602C4.48724 32.1868 3.64803 30.7591 3.14904 28.8389C2.65769 26.9481 2.47498 24.5007 2.47498 21.3695C2.47498 17.1891 2.68295 14.9214 3.70408 13.1396C4.21543 12.2473 4.89642 11.533 5.70544 10.7862C6.05372 10.4647 6.44061 10.124 6.85694 9.75747C6.92344 9.69891 6.9907 9.63969 7.05867 9.57978C7.5564 9.14109 8.10447 8.65497 8.7135 8.09017C8.73274 8.07232 8.75259 8.05516 8.77304 8.0387C9.09122 7.78257 9.46256 7.46685 9.86987 7.12055C10.7308 6.38854 11.7525 5.51987 12.7727 4.7885Z" fill="current"/>
</svg>
