<svg width="37" height="36" viewBox="0 0 37 36" fill="none" xmlns="http://www.w3.org/2000/svg">
<path fill-rule="evenodd" clip-rule="evenodd" d="M18.4426 17.8381H18.4891C22.7371 17.8381 26.1931 14.3821 26.1931 10.1341C26.1931 5.88609 22.7371 2.42859 18.4891 2.42859C14.2396 2.42859 10.7836 5.88609 10.7836 10.1296C10.7761 12.1831 11.5696 14.1151 13.0156 15.5716C14.4601 17.0266 16.3876 17.8321 18.4426 17.8381ZM13.0336 10.1341C13.0336 7.12659 15.4816 4.67859 18.4891 4.67859C21.4966 4.67859 23.9431 7.12659 23.9431 10.1341C23.9431 13.1416 21.4966 15.5881 18.4891 15.5881H18.4471C16.9951 15.5851 15.6346 15.0151 14.6116 13.9846C13.5886 12.9556 13.0291 11.5891 13.0336 10.1341Z" fill="current"/>
<path fill-rule="evenodd" clip-rule="evenodd" d="M7.10828 28.134C7.10828 33.5715 15.6823 33.5715 18.4993 33.5715C21.3163 33.5715 29.8918 33.5715 29.8918 28.101C29.8918 23.9115 24.6748 20.3715 18.4993 20.3715C12.3253 20.3715 7.10828 23.9265 7.10828 28.134ZM9.35828 28.134C9.35828 25.5315 13.2673 22.6215 18.4993 22.6215C23.7328 22.6215 27.6418 25.515 27.6418 28.101C27.6418 30.237 24.5653 31.3215 18.4993 31.3215C12.4348 31.3215 9.35828 30.249 9.35828 28.134Z" fill="current"/>
</svg>
