<svg width="30" height="30" viewBox="0 0 30 30" fill="none" xmlns="http://www.w3.org/2000/svg">
<g id="Iconly/Curved/Light/Volume Up">
<g id="Volume Up">
<path id="Stroke 1" d="M24.2945 7.21805C27.4116 11.868 27.4207 18.0044 24.2945 22.6646" stroke="white" stroke-width="1.875" stroke-linecap="round" stroke-linejoin="round"/>
<path id="Stroke 3" d="M21.2361 10.2715C22.8384 13.1749 22.8384 16.7181 21.2361 19.6113" stroke="white" stroke-width="1.875" stroke-linecap="round" stroke-linejoin="round"/>
<path id="Stroke 5" fill-rule="evenodd" clip-rule="evenodd" d="M3.35284 14.9411C3.34943 16.4991 3.35284 18.3264 4.6392 19.4184C5.9267 20.5116 6.94716 20.0604 8.61193 20.6082C10.2778 21.157 12.6108 24.5411 15.1881 23.0127C16.5812 22.0229 17.2381 20.1548 17.2381 14.9411C17.2381 9.72749 16.6108 7.87977 15.1881 6.86954C12.6108 5.34227 10.2778 8.72636 8.61193 9.27408C6.94716 9.82295 5.9267 9.37181 4.6392 10.4639C3.35284 11.5559 3.34943 13.3832 3.35284 14.9411Z" stroke="white" stroke-width="1.875" stroke-linecap="round" stroke-linejoin="round"/>
</g>
</g>
</svg>
