<svg width="26" height="20" viewBox="0 0 26 20" fill="none" xmlns="http://www.w3.org/2000/svg">
<g id="Volume Up">
<path id="Stroke 1 (Stroke)" fill-rule="evenodd" clip-rule="evenodd" d="M21.7725 1.38372C22.2026 1.09543 22.785 1.21037 23.0733 1.64044C26.4016 6.60561 26.4116 13.1545 23.0731 18.1313C22.7846 18.5613 22.2023 18.676 21.7723 18.3876C21.3423 18.0992 21.2275 17.5168 21.516 17.0868C24.4298 12.7431 24.4216 7.01929 21.5158 2.68446C21.2275 2.25438 21.3424 1.67202 21.7725 1.38372Z" fill="white"/>
<path id="Stroke 3 (Stroke)" fill-rule="evenodd" clip-rule="evenodd" d="M18.7832 4.39506C19.2365 4.1449 19.8068 4.30958 20.0569 4.7629C21.8145 7.94775 21.8153 11.8336 20.0563 15.0098C19.8054 15.4628 19.2349 15.6266 18.7819 15.3758C18.329 15.1249 18.1652 14.5544 18.416 14.1014C19.8615 11.4913 19.8623 8.29081 18.4153 5.66884C18.1652 5.21552 18.3298 4.64523 18.7832 4.39506Z" fill="white"/>
<path id="Stroke 5 (Stroke)" fill-rule="evenodd" clip-rule="evenodd" d="M9.04739 1.45196C10.2376 0.678647 11.8948 -0.0421436 13.6659 1.00743C13.6881 1.02057 13.7098 1.03462 13.7308 1.04955C14.6511 1.70306 15.2712 2.61965 15.6516 4.02917C16.0199 5.39353 16.1755 7.26116 16.1755 9.88554C16.1755 12.5127 16.0122 14.385 15.64 15.7516C15.2566 17.1596 14.6382 18.0769 13.731 18.7214C13.71 18.7363 13.6884 18.7504 13.6662 18.7635C11.8951 19.8138 10.2378 19.0934 9.04739 18.32C8.59737 18.0276 8.15407 17.6878 7.7665 17.3908C7.64378 17.2967 7.52665 17.207 7.41666 17.1243C6.91116 16.7446 6.56811 16.5252 6.31851 16.443C5.78419 16.2672 5.36698 16.2173 4.89585 16.1609C4.72293 16.1402 4.54274 16.1186 4.34684 16.0897C3.61631 15.9816 2.85328 15.7745 2.03236 15.0775C1.17759 14.3518 0.781105 13.4023 0.593821 12.4868C0.411514 11.5957 0.413573 10.6601 0.415246 9.90008L0.415283 9.88759V9.88349L0.415246 9.871C0.413573 9.11101 0.411514 8.17542 0.593821 7.28429C0.781109 6.3688 1.17761 5.41925 2.03241 4.69358L2.03272 4.69331C2.85371 3.99696 3.61669 3.79029 4.34684 3.68228C4.54181 3.65344 4.72126 3.63191 4.89351 3.61125C5.36544 3.55465 5.78332 3.50452 6.31833 3.32814L6.31906 3.3279C6.56842 3.24591 6.91134 3.02688 7.4168 2.64729C7.52704 2.5645 7.64448 2.47452 7.76753 2.38024C8.15484 2.08348 8.59781 1.74408 9.04739 1.45196ZM6.90469 5.10909C6.17408 5.34988 5.50703 5.42886 5.00274 5.48858C4.86221 5.50522 4.73432 5.52036 4.62122 5.5371C4.10319 5.61373 3.71225 5.72748 3.24587 6.12296C2.81432 6.48933 2.56593 6.99944 2.43077 7.66009C2.29197 8.33859 2.28854 9.08847 2.29028 9.88349V9.88759C2.28854 10.6826 2.29197 11.4325 2.43077 12.111C2.56593 12.7716 2.81432 13.2818 3.24587 13.6481L3.24593 13.6482C3.71251 14.0443 4.10346 14.1582 4.62122 14.2348C4.73456 14.2516 4.86282 14.2668 5.00382 14.2834C5.50793 14.343 6.17489 14.4219 6.90487 14.662L6.90524 14.6622C7.48859 14.8544 8.06187 15.2639 8.54287 15.6252C8.68291 15.7304 8.8192 15.8348 8.95359 15.9378C9.32703 16.2239 9.68575 16.4987 10.069 16.7477C11.0918 17.4123 11.8819 17.6231 12.677 17.1699C13.1489 16.8248 13.544 16.3123 13.8309 15.259C14.1354 14.1406 14.3005 12.472 14.3005 9.88554C14.3005 7.29629 14.1425 5.63323 13.8414 4.51776C13.5587 3.47033 13.1649 2.95722 12.6773 2.60144C11.8823 2.14848 11.092 2.35951 10.069 3.02423C9.68605 3.27302 9.32769 3.54749 8.95461 3.83323C8.81986 3.93644 8.68318 4.04112 8.54274 4.14659C8.0617 4.50784 7.48828 4.91722 6.90469 5.10909Z" fill="white"/>
</g>
</svg>
